<mxfile host="app.diagrams.net" agent="Mozilla/5.0 (Windows NT 10.0; Win64; x64) AppleWebKit/537.36 (KHTML, like Gecko) Chrome/136.0.0.0 Safari/537.36" version="27.0.6">
  <diagram name="Página-1" id="znQfJpkfwAl4AnDhoSxj">
    <mxGraphModel dx="1148" dy="512" grid="1" gridSize="10" guides="1" tooltips="1" connect="1" arrows="1" fold="1" page="1" pageScale="1" pageWidth="827" pageHeight="1169" math="0" shadow="0">
      <root>
        <mxCell id="0" />
        <mxCell id="1" parent="0" />
        <mxCell id="wlbdYxcqf9z36K8V1xM--5" value="&lt;h3 style=&quot;box-sizing: border-box; margin-top: 0px; margin-bottom: 0.5rem; font-weight: 500; line-height: 1.2; font-size: 1.75rem; font-family: &amp;quot;Roboto Condensed&amp;quot;; color: rgb(33, 37, 41); text-align: left; background-color: rgb(248, 249, 250);&quot; id=&quot;yui_3_17_2_1_1747786801641_1197&quot;&gt;Usuário&lt;/h3&gt;" style="swimlane;fontStyle=1;align=center;verticalAlign=top;childLayout=stackLayout;horizontal=1;startSize=50;horizontalStack=0;resizeParent=1;resizeParentMax=0;resizeLast=0;collapsible=1;marginBottom=0;whiteSpace=wrap;html=1;" vertex="1" parent="1">
          <mxGeometry x="40" y="40" width="160" height="320" as="geometry" />
        </mxCell>
        <mxCell id="wlbdYxcqf9z36K8V1xM--6" value="nome: str&lt;div&gt;idade: num&lt;/div&gt;&lt;div&gt;email: email or str&lt;/div&gt;&lt;div&gt;id: num&lt;/div&gt;&lt;div&gt;avaliação: num&lt;/div&gt;" style="text;strokeColor=none;fillColor=none;align=left;verticalAlign=top;spacingLeft=4;spacingRight=4;overflow=hidden;rotatable=0;points=[[0,0.5],[1,0.5]];portConstraint=eastwest;whiteSpace=wrap;html=1;" vertex="1" parent="wlbdYxcqf9z36K8V1xM--5">
          <mxGeometry y="50" width="160" height="100" as="geometry" />
        </mxCell>
        <mxCell id="wlbdYxcqf9z36K8V1xM--7" value="" style="line;strokeWidth=1;fillColor=none;align=left;verticalAlign=middle;spacingTop=-1;spacingLeft=3;spacingRight=3;rotatable=0;labelPosition=right;points=[];portConstraint=eastwest;strokeColor=inherit;" vertex="1" parent="wlbdYxcqf9z36K8V1xM--5">
          <mxGeometry y="150" width="160" height="8" as="geometry" />
        </mxCell>
        <mxCell id="wlbdYxcqf9z36K8V1xM--8" value="&lt;h3 style=&quot;box-sizing: border-box; margin-top: 0px; margin-bottom: 0.5rem; font-weight: 500; line-height: 1.2; font-family: &amp;quot;Roboto Condensed&amp;quot;; color: rgb(33, 37, 41); background-color: rgb(248, 249, 250);&quot; id=&quot;yui_3_17_2_1_1747786801641_1201&quot;&gt;&lt;font style=&quot;font-size: 14px;&quot;&gt;&amp;nbsp;&lt;font style=&quot;&quot;&gt;Inserir foto&lt;/font&gt;&lt;/font&gt;&lt;/h3&gt;&lt;div&gt;&lt;h3 style=&quot;box-sizing: border-box; margin-top: 0px; margin-bottom: 0.5rem; font-weight: 500; line-height: 1.2; font-family: &amp;quot;Roboto Condensed&amp;quot;; color: rgb(33, 37, 41); background-color: rgb(248, 249, 250);&quot; id=&quot;yui_3_17_2_1_1747786801641_1201&quot;&gt;&lt;font style=&quot;font-size: 12px;&quot;&gt;Inserir publicação&lt;/font&gt;&lt;/h3&gt;&lt;/div&gt;&lt;div&gt;&lt;h3 style=&quot;box-sizing: border-box; margin-top: 0px; margin-bottom: 0.5rem; font-weight: 500; line-height: 1.2; font-family: &amp;quot;Roboto Condensed&amp;quot;; color: rgb(33, 37, 41); background-color: rgb(248, 249, 250);&quot; id=&quot;yui_3_17_2_1_1747786801641_1201&quot;&gt;&lt;font size=&quot;3&quot;&gt;Trocar Senha&lt;/font&gt;&lt;/h3&gt;&lt;/div&gt;&lt;div&gt;&lt;h3 style=&quot;box-sizing: border-box; margin-top: 0px; margin-bottom: 0.5rem; font-weight: 500; line-height: 1.2; font-family: &amp;quot;Roboto Condensed&amp;quot;; color: rgb(33, 37, 41); background-color: rgb(248, 249, 250);&quot; id=&quot;yui_3_17_2_1_1747786801641_1201&quot;&gt;&lt;font size=&quot;3&quot;&gt;Abrir Chamado&lt;/font&gt;&lt;/h3&gt;&lt;/div&gt;&lt;div&gt;&lt;h3 style=&quot;box-sizing: border-box; margin-top: 0px; margin-bottom: 0.5rem; font-weight: 500; line-height: 1.2; font-family: &amp;quot;Roboto Condensed&amp;quot;; color: rgb(33, 37, 41); background-color: rgb(248, 249, 250);&quot; id=&quot;yui_3_17_2_1_1747786801641_1201&quot;&gt;&lt;font size=&quot;3&quot;&gt;Iniciar Chat&lt;/font&gt;&lt;/h3&gt;&lt;/div&gt;&lt;div&gt;&lt;h3 style=&quot;box-sizing: border-box; margin-top: 0px; margin-bottom: 0.5rem; font-weight: 500; line-height: 1.2; font-family: &amp;quot;Roboto Condensed&amp;quot;; color: rgb(33, 37, 41); background-color: rgb(248, 249, 250);&quot; id=&quot;yui_3_17_2_1_1747786801641_1201&quot;&gt;&lt;font size=&quot;3&quot;&gt;Apagar Usuário&lt;/font&gt;&lt;/h3&gt;&lt;/div&gt;" style="text;strokeColor=none;fillColor=none;align=left;verticalAlign=top;spacingLeft=4;spacingRight=4;overflow=hidden;rotatable=0;points=[[0,0.5],[1,0.5]];portConstraint=eastwest;whiteSpace=wrap;html=1;" vertex="1" parent="wlbdYxcqf9z36K8V1xM--5">
          <mxGeometry y="158" width="160" height="162" as="geometry" />
        </mxCell>
        <mxCell id="wlbdYxcqf9z36K8V1xM--9" value="&lt;h3 style=&quot;box-sizing: border-box; margin-top: 0px; margin-bottom: 0.5rem; font-weight: 500; line-height: 1.2; font-size: 1.75rem; font-family: &amp;quot;Roboto Condensed&amp;quot;; color: rgb(33, 37, 41); text-align: left; background-color: rgb(248, 249, 250);&quot; id=&quot;yui_3_17_2_1_1747786801641_1197&quot;&gt;Suporte&lt;/h3&gt;" style="swimlane;fontStyle=1;align=center;verticalAlign=top;childLayout=stackLayout;horizontal=1;startSize=50;horizontalStack=0;resizeParent=1;resizeParentMax=0;resizeLast=0;collapsible=1;marginBottom=0;whiteSpace=wrap;html=1;" vertex="1" parent="1">
          <mxGeometry x="240" y="40" width="160" height="320" as="geometry" />
        </mxCell>
        <mxCell id="wlbdYxcqf9z36K8V1xM--10" value="categoria: str&lt;div&gt;tempo_habil:num&lt;/div&gt;&lt;div&gt;usuario_nome: str&lt;/div&gt;&lt;div&gt;tecnico: str&lt;/div&gt;&lt;div&gt;prioridade: str&lt;/div&gt;" style="text;strokeColor=none;fillColor=none;align=left;verticalAlign=top;spacingLeft=4;spacingRight=4;overflow=hidden;rotatable=0;points=[[0,0.5],[1,0.5]];portConstraint=eastwest;whiteSpace=wrap;html=1;" vertex="1" parent="wlbdYxcqf9z36K8V1xM--9">
          <mxGeometry y="50" width="160" height="100" as="geometry" />
        </mxCell>
        <mxCell id="wlbdYxcqf9z36K8V1xM--11" value="" style="line;strokeWidth=1;fillColor=none;align=left;verticalAlign=middle;spacingTop=-1;spacingLeft=3;spacingRight=3;rotatable=0;labelPosition=right;points=[];portConstraint=eastwest;strokeColor=inherit;" vertex="1" parent="wlbdYxcqf9z36K8V1xM--9">
          <mxGeometry y="150" width="160" height="8" as="geometry" />
        </mxCell>
        <mxCell id="wlbdYxcqf9z36K8V1xM--12" value="&lt;h3 style=&quot;box-sizing: border-box; margin-top: 0px; margin-bottom: 0.5rem; font-weight: 500; line-height: 1.2; font-family: &amp;quot;Roboto Condensed&amp;quot;; color: rgb(33, 37, 41); background-color: rgb(248, 249, 250);&quot; id=&quot;yui_3_17_2_1_1747786801641_1201&quot;&gt;&lt;font style=&quot;font-size: 12px;&quot;&gt;&amp;nbsp;Criar usuário&lt;/font&gt;&lt;/h3&gt;&lt;div&gt;&lt;h3 style=&quot;box-sizing: border-box; margin-top: 0px; margin-bottom: 0.5rem; font-weight: 500; line-height: 1.2; font-family: &amp;quot;Roboto Condensed&amp;quot;; color: rgb(33, 37, 41); background-color: rgb(248, 249, 250);&quot; id=&quot;yui_3_17_2_1_1747786801641_1201&quot;&gt;&lt;font size=&quot;3&quot;&gt;Atender Chamado&lt;/font&gt;&lt;/h3&gt;&lt;/div&gt;&lt;div&gt;&lt;h3 style=&quot;box-sizing: border-box; margin-top: 0px; margin-bottom: 0.5rem; font-weight: 500; line-height: 1.2; font-family: &amp;quot;Roboto Condensed&amp;quot;; color: rgb(33, 37, 41); background-color: rgb(248, 249, 250);&quot; id=&quot;yui_3_17_2_1_1747786801641_1201&quot;&gt;&lt;font size=&quot;3&quot;&gt;Trocar Senha&lt;/font&gt;&lt;/h3&gt;&lt;/div&gt;&lt;div&gt;&lt;h3 style=&quot;box-sizing: border-box; margin-top: 0px; margin-bottom: 0.5rem; font-weight: 500; line-height: 1.2; font-family: &amp;quot;Roboto Condensed&amp;quot;; color: rgb(33, 37, 41); background-color: rgb(248, 249, 250);&quot; id=&quot;yui_3_17_2_1_1747786801641_1201&quot;&gt;&lt;font size=&quot;3&quot;&gt;&amp;nbsp;Iniciar Chat&lt;/font&gt;&lt;/h3&gt;&lt;/div&gt;&lt;div&gt;&lt;h3 style=&quot;box-sizing: border-box; margin-top: 0px; margin-bottom: 0.5rem; font-weight: 500; line-height: 1.2; font-family: &amp;quot;Roboto Condensed&amp;quot;; color: rgb(33, 37, 41); background-color: rgb(248, 249, 250);&quot; id=&quot;yui_3_17_2_1_1747786801641_1201&quot;&gt;&lt;font size=&quot;3&quot;&gt;Apagar Usuário&lt;/font&gt;&lt;/h3&gt;&lt;/div&gt;" style="text;strokeColor=none;fillColor=none;align=left;verticalAlign=top;spacingLeft=4;spacingRight=4;overflow=hidden;rotatable=0;points=[[0,0.5],[1,0.5]];portConstraint=eastwest;whiteSpace=wrap;html=1;" vertex="1" parent="wlbdYxcqf9z36K8V1xM--9">
          <mxGeometry y="158" width="160" height="162" as="geometry" />
        </mxCell>
        <mxCell id="wlbdYxcqf9z36K8V1xM--13" value="" style="endArrow=none;html=1;rounded=0;entryX=0;entryY=0.5;entryDx=0;entryDy=0;exitX=1;exitY=0.5;exitDx=0;exitDy=0;" edge="1" parent="1" source="wlbdYxcqf9z36K8V1xM--6" target="wlbdYxcqf9z36K8V1xM--10">
          <mxGeometry width="50" height="50" relative="1" as="geometry">
            <mxPoint x="340" y="280" as="sourcePoint" />
            <mxPoint x="390" y="230" as="targetPoint" />
          </mxGeometry>
        </mxCell>
        <mxCell id="wlbdYxcqf9z36K8V1xM--14" value="&lt;h3 style=&quot;box-sizing: border-box; margin-top: 0px; margin-bottom: 0.5rem; font-weight: 500; line-height: 1.2; font-size: 1.75rem; font-family: &amp;quot;Roboto Condensed&amp;quot;; color: rgb(33, 37, 41); text-align: left; background-color: rgb(248, 249, 250);&quot; id=&quot;yui_3_17_2_1_1747786801641_1203&quot;&gt;Aluno&lt;/h3&gt;" style="swimlane;fontStyle=1;align=center;verticalAlign=top;childLayout=stackLayout;horizontal=1;startSize=50;horizontalStack=0;resizeParent=1;resizeParentMax=0;resizeLast=0;collapsible=1;marginBottom=0;whiteSpace=wrap;html=1;" vertex="1" parent="1">
          <mxGeometry x="40" y="400" width="160" height="320" as="geometry" />
        </mxCell>
        <mxCell id="wlbdYxcqf9z36K8V1xM--15" value="nome: str&lt;div&gt;idade: num&lt;/div&gt;&lt;div&gt;email: email or str&lt;/div&gt;&lt;div&gt;id: num&lt;/div&gt;&lt;div&gt;turma: num&lt;/div&gt;" style="text;strokeColor=none;fillColor=none;align=left;verticalAlign=top;spacingLeft=4;spacingRight=4;overflow=hidden;rotatable=0;points=[[0,0.5],[1,0.5]];portConstraint=eastwest;whiteSpace=wrap;html=1;" vertex="1" parent="wlbdYxcqf9z36K8V1xM--14">
          <mxGeometry y="50" width="160" height="100" as="geometry" />
        </mxCell>
        <mxCell id="wlbdYxcqf9z36K8V1xM--16" value="" style="line;strokeWidth=1;fillColor=none;align=left;verticalAlign=middle;spacingTop=-1;spacingLeft=3;spacingRight=3;rotatable=0;labelPosition=right;points=[];portConstraint=eastwest;strokeColor=inherit;" vertex="1" parent="wlbdYxcqf9z36K8V1xM--14">
          <mxGeometry y="150" width="160" height="8" as="geometry" />
        </mxCell>
        <mxCell id="wlbdYxcqf9z36K8V1xM--17" value="&lt;h3 style=&quot;box-sizing: border-box; margin-top: 0px; margin-bottom: 0.5rem; font-weight: 500; line-height: 1.2; font-family: &amp;quot;Roboto Condensed&amp;quot;; color: rgb(33, 37, 41); background-color: rgb(248, 249, 250);&quot; id=&quot;yui_3_17_2_1_1747786801641_1207&quot;&gt;&lt;font style=&quot;font-size: 12px;&quot;&gt;&amp;nbsp;Verificar frequência&lt;/font&gt;&lt;/h3&gt;&lt;div&gt;&lt;h3 style=&quot;box-sizing: border-box; margin-top: 0px; margin-bottom: 0.5rem; font-weight: 500; line-height: 1.2; font-family: &amp;quot;Roboto Condensed&amp;quot;; color: rgb(33, 37, 41); background-color: rgb(248, 249, 250);&quot; id=&quot;yui_3_17_2_1_1747786801641_1207&quot;&gt;&lt;font size=&quot;3&quot;&gt;Lançar presença&lt;/font&gt;&lt;/h3&gt;&lt;/div&gt;" style="text;strokeColor=none;fillColor=none;align=left;verticalAlign=top;spacingLeft=4;spacingRight=4;overflow=hidden;rotatable=0;points=[[0,0.5],[1,0.5]];portConstraint=eastwest;whiteSpace=wrap;html=1;" vertex="1" parent="wlbdYxcqf9z36K8V1xM--14">
          <mxGeometry y="158" width="160" height="162" as="geometry" />
        </mxCell>
        <mxCell id="wlbdYxcqf9z36K8V1xM--18" value="&lt;h3 style=&quot;box-sizing: border-box; margin-top: 0px; margin-bottom: 0.5rem; font-weight: 500; line-height: 1.2; font-size: 1.75rem; font-family: &amp;quot;Roboto Condensed&amp;quot;; color: rgb(33, 37, 41); text-align: left; background-color: rgb(248, 249, 250);&quot; id=&quot;yui_3_17_2_1_1747786801641_1203&quot;&gt;Professor&lt;/h3&gt;" style="swimlane;fontStyle=1;align=center;verticalAlign=top;childLayout=stackLayout;horizontal=1;startSize=50;horizontalStack=0;resizeParent=1;resizeParentMax=0;resizeLast=0;collapsible=1;marginBottom=0;whiteSpace=wrap;html=1;" vertex="1" parent="1">
          <mxGeometry x="240" y="400" width="160" height="320" as="geometry" />
        </mxCell>
        <mxCell id="wlbdYxcqf9z36K8V1xM--19" value="nome: str&lt;div&gt;idade: num&lt;/div&gt;&lt;div&gt;email: email or str&lt;/div&gt;&lt;div&gt;materia: str&lt;/div&gt;&lt;div&gt;turma_aluno: num&lt;/div&gt;" style="text;strokeColor=none;fillColor=none;align=left;verticalAlign=top;spacingLeft=4;spacingRight=4;overflow=hidden;rotatable=0;points=[[0,0.5],[1,0.5]];portConstraint=eastwest;whiteSpace=wrap;html=1;" vertex="1" parent="wlbdYxcqf9z36K8V1xM--18">
          <mxGeometry y="50" width="160" height="100" as="geometry" />
        </mxCell>
        <mxCell id="wlbdYxcqf9z36K8V1xM--20" value="" style="line;strokeWidth=1;fillColor=none;align=left;verticalAlign=middle;spacingTop=-1;spacingLeft=3;spacingRight=3;rotatable=0;labelPosition=right;points=[];portConstraint=eastwest;strokeColor=inherit;" vertex="1" parent="wlbdYxcqf9z36K8V1xM--18">
          <mxGeometry y="150" width="160" height="8" as="geometry" />
        </mxCell>
        <mxCell id="wlbdYxcqf9z36K8V1xM--21" value="&lt;h3 style=&quot;box-sizing: border-box; margin-top: 0px; margin-bottom: 0.5rem; font-weight: 500; line-height: 1.2; font-family: &amp;quot;Roboto Condensed&amp;quot;; color: rgb(33, 37, 41); background-color: rgb(248, 249, 250);&quot; id=&quot;yui_3_17_2_1_1747786801641_1201&quot;&gt;&lt;font style=&quot;font-size: 14px;&quot;&gt;&amp;nbsp;&lt;/font&gt;&lt;span style=&quot;background-color: rgb(248, 249, 250); color: rgb(33, 37, 41);&quot;&gt;&lt;font style=&quot;font-size: 12px;&quot;&gt;I&lt;/font&gt;&lt;font style=&quot;font-size: 12px;&quot;&gt;nserir Código&lt;/font&gt;&lt;/span&gt;&lt;/h3&gt;&lt;div&gt;&lt;span style=&quot;background-color: rgb(248, 249, 250); color: rgb(33, 37, 41);&quot;&gt;&lt;font size=&quot;3&quot; style=&quot;&quot;&gt;&lt;h3 style=&quot;box-sizing: border-box; margin-top: 0px; margin-bottom: 0.5rem; font-weight: 500; line-height: 1.2; font-family: &amp;quot;Roboto Condensed&amp;quot;; color: rgb(33, 37, 41); background-color: rgb(248, 249, 250);&quot; id=&quot;yui_3_17_2_1_1747786801641_1207&quot;&gt;&amp;nbsp;Verificar frequência&lt;/h3&gt;&lt;div style=&quot;&quot;&gt;&lt;h3 style=&quot;box-sizing: border-box; margin-top: 0px; margin-bottom: 0.5rem; font-weight: 500; line-height: 1.2; font-family: &amp;quot;Roboto Condensed&amp;quot;; color: rgb(33, 37, 41); background-color: rgb(248, 249, 250);&quot; id=&quot;yui_3_17_2_1_1747786801641_1207&quot;&gt;&amp;nbsp;Gerar Código&lt;/h3&gt;&lt;/div&gt;&lt;div style=&quot;&quot;&gt;&lt;h3 style=&quot;box-sizing: border-box; margin-top: 0px; margin-bottom: 0.5rem; font-weight: 500; line-height: 1.2; font-family: &amp;quot;Roboto Condensed&amp;quot;; color: rgb(33, 37, 41); background-color: rgb(248, 249, 250);&quot; id=&quot;yui_3_17_2_1_1747786801641_1207&quot;&gt;Lançar presença&lt;/h3&gt;&lt;/div&gt;&lt;/font&gt;&lt;/span&gt;&lt;/div&gt;" style="text;strokeColor=none;fillColor=none;align=left;verticalAlign=top;spacingLeft=4;spacingRight=4;overflow=hidden;rotatable=0;points=[[0,0.5],[1,0.5]];portConstraint=eastwest;whiteSpace=wrap;html=1;" vertex="1" parent="wlbdYxcqf9z36K8V1xM--18">
          <mxGeometry y="158" width="160" height="162" as="geometry" />
        </mxCell>
        <mxCell id="wlbdYxcqf9z36K8V1xM--23" value="&lt;h3 style=&quot;box-sizing: border-box; margin-top: 0px; margin-bottom: 0.5rem; font-weight: 500; line-height: 1.2; font-size: 1.75rem; font-family: &amp;quot;Roboto Condensed&amp;quot;; color: rgb(33, 37, 41); text-align: left; background-color: rgb(248, 249, 250);&quot; id=&quot;yui_3_17_2_1_1747786801641_1189&quot;&gt;Estoquista&lt;/h3&gt;" style="swimlane;fontStyle=1;align=center;verticalAlign=top;childLayout=stackLayout;horizontal=1;startSize=50;horizontalStack=0;resizeParent=1;resizeParentMax=0;resizeLast=0;collapsible=1;marginBottom=0;whiteSpace=wrap;html=1;" vertex="1" parent="1">
          <mxGeometry x="40" y="760" width="160" height="320" as="geometry" />
        </mxCell>
        <mxCell id="wlbdYxcqf9z36K8V1xM--24" value="nome: str&lt;div&gt;idade: num&lt;/div&gt;&lt;div&gt;email: email or str&lt;/div&gt;&lt;div&gt;regiao: str&lt;/div&gt;&lt;div&gt;subordinado: str&lt;/div&gt;" style="text;strokeColor=none;fillColor=none;align=left;verticalAlign=top;spacingLeft=4;spacingRight=4;overflow=hidden;rotatable=0;points=[[0,0.5],[1,0.5]];portConstraint=eastwest;whiteSpace=wrap;html=1;" vertex="1" parent="wlbdYxcqf9z36K8V1xM--23">
          <mxGeometry y="50" width="160" height="100" as="geometry" />
        </mxCell>
        <mxCell id="wlbdYxcqf9z36K8V1xM--25" value="" style="line;strokeWidth=1;fillColor=none;align=left;verticalAlign=middle;spacingTop=-1;spacingLeft=3;spacingRight=3;rotatable=0;labelPosition=right;points=[];portConstraint=eastwest;strokeColor=inherit;" vertex="1" parent="wlbdYxcqf9z36K8V1xM--23">
          <mxGeometry y="150" width="160" height="8" as="geometry" />
        </mxCell>
        <mxCell id="wlbdYxcqf9z36K8V1xM--26" value="&lt;h3 style=&quot;box-sizing: border-box; margin-top: 0px; margin-bottom: 0.5rem; font-weight: 500; line-height: 1.2; font-family: &amp;quot;Roboto Condensed&amp;quot;; color: rgb(33, 37, 41); background-color: rgb(248, 249, 250);&quot; id=&quot;yui_3_17_2_1_1747786801641_1201&quot;&gt;&lt;font style=&quot;font-size: 14px;&quot;&gt;&amp;nbsp;&lt;/font&gt;&lt;span style=&quot;background-color: rgb(248, 249, 250); color: rgb(33, 37, 41);&quot;&gt;&lt;font style=&quot;font-size: 12px;&quot;&gt;I&lt;/font&gt;&lt;font style=&quot;font-size: 12px;&quot;&gt;nserir Código&lt;/font&gt;&lt;/span&gt;&lt;/h3&gt;&lt;div&gt;&lt;span style=&quot;background-color: rgb(248, 249, 250); color: rgb(33, 37, 41);&quot;&gt;&lt;font size=&quot;3&quot; style=&quot;&quot;&gt;&lt;h3 style=&quot;box-sizing: border-box; margin-top: 0px; margin-bottom: 0.5rem; font-weight: 500; line-height: 1.2; font-family: &amp;quot;Roboto Condensed&amp;quot;; color: rgb(33, 37, 41); background-color: rgb(248, 249, 250);&quot; id=&quot;yui_3_17_2_1_1747786801641_1207&quot;&gt;&amp;nbsp;Verificar frequência&lt;/h3&gt;&lt;div style=&quot;&quot;&gt;&lt;h3 style=&quot;box-sizing: border-box; margin-top: 0px; margin-bottom: 0.5rem; font-weight: 500; line-height: 1.2; font-family: &amp;quot;Roboto Condensed&amp;quot;; color: rgb(33, 37, 41); background-color: rgb(248, 249, 250);&quot; id=&quot;yui_3_17_2_1_1747786801641_1207&quot;&gt;&amp;nbsp;Gerar Código&lt;/h3&gt;&lt;/div&gt;&lt;div style=&quot;&quot;&gt;&lt;h3 style=&quot;box-sizing: border-box; margin-top: 0px; margin-bottom: 0.5rem; font-weight: 500; line-height: 1.2; font-family: &amp;quot;Roboto Condensed&amp;quot;; color: rgb(33, 37, 41); background-color: rgb(248, 249, 250);&quot; id=&quot;yui_3_17_2_1_1747786801641_1207&quot;&gt;Lançar presença&lt;/h3&gt;&lt;/div&gt;&lt;/font&gt;&lt;/span&gt;&lt;/div&gt;" style="text;strokeColor=none;fillColor=none;align=left;verticalAlign=top;spacingLeft=4;spacingRight=4;overflow=hidden;rotatable=0;points=[[0,0.5],[1,0.5]];portConstraint=eastwest;whiteSpace=wrap;html=1;" vertex="1" parent="wlbdYxcqf9z36K8V1xM--23">
          <mxGeometry y="158" width="160" height="162" as="geometry" />
        </mxCell>
        <mxCell id="wlbdYxcqf9z36K8V1xM--27" value="&lt;h3 style=&quot;box-sizing: border-box; margin-top: 0px; margin-bottom: 0.5rem; font-weight: 500; line-height: 1.2; font-size: 1.75rem; font-family: &amp;quot;Roboto Condensed&amp;quot;; color: rgb(33, 37, 41); text-align: left; background-color: rgb(248, 249, 250);&quot; id=&quot;yui_3_17_2_1_1747786801641_1189&quot;&gt;Operário&lt;/h3&gt;" style="swimlane;fontStyle=1;align=center;verticalAlign=top;childLayout=stackLayout;horizontal=1;startSize=50;horizontalStack=0;resizeParent=1;resizeParentMax=0;resizeLast=0;collapsible=1;marginBottom=0;whiteSpace=wrap;html=1;" vertex="1" parent="1">
          <mxGeometry x="440" y="760" width="160" height="320" as="geometry" />
        </mxCell>
        <mxCell id="wlbdYxcqf9z36K8V1xM--28" value="nome: str&lt;div&gt;idade: num&lt;/div&gt;&lt;div&gt;email: email or str&lt;/div&gt;&lt;div&gt;area: str&lt;/div&gt;&lt;div&gt;subordinado: num&lt;/div&gt;&lt;div&gt;regiao_estoquista&lt;/div&gt;" style="text;strokeColor=none;fillColor=none;align=left;verticalAlign=top;spacingLeft=4;spacingRight=4;overflow=hidden;rotatable=0;points=[[0,0.5],[1,0.5]];portConstraint=eastwest;whiteSpace=wrap;html=1;" vertex="1" parent="wlbdYxcqf9z36K8V1xM--27">
          <mxGeometry y="50" width="160" height="100" as="geometry" />
        </mxCell>
        <mxCell id="wlbdYxcqf9z36K8V1xM--29" value="" style="line;strokeWidth=1;fillColor=none;align=left;verticalAlign=middle;spacingTop=-1;spacingLeft=3;spacingRight=3;rotatable=0;labelPosition=right;points=[];portConstraint=eastwest;strokeColor=inherit;" vertex="1" parent="wlbdYxcqf9z36K8V1xM--27">
          <mxGeometry y="150" width="160" height="8" as="geometry" />
        </mxCell>
        <mxCell id="wlbdYxcqf9z36K8V1xM--30" value="&lt;h3 style=&quot;box-sizing: border-box; margin-top: 0px; margin-bottom: 0.5rem; font-weight: 500; line-height: 1.2; font-family: &amp;quot;Roboto Condensed&amp;quot;; color: rgb(33, 37, 41); background-color: rgb(248, 249, 250);&quot; id=&quot;yui_3_17_2_1_1747786801641_1201&quot;&gt;&lt;font style=&quot;font-size: 14px;&quot;&gt;&amp;nbsp;&lt;/font&gt;&lt;span style=&quot;background-color: rgb(248, 249, 250); color: rgb(33, 37, 41);&quot;&gt;&lt;font style=&quot;font-size: 12px;&quot;&gt;I&lt;/font&gt;&lt;font style=&quot;font-size: 12px;&quot;&gt;nserir Código&lt;/font&gt;&lt;/span&gt;&lt;/h3&gt;&lt;div&gt;&lt;span style=&quot;background-color: rgb(248, 249, 250); color: rgb(33, 37, 41);&quot;&gt;&lt;font size=&quot;3&quot; style=&quot;&quot;&gt;&lt;h3 style=&quot;box-sizing: border-box; margin-top: 0px; margin-bottom: 0.5rem; font-weight: 500; line-height: 1.2; font-family: &amp;quot;Roboto Condensed&amp;quot;; color: rgb(33, 37, 41); background-color: rgb(248, 249, 250);&quot; id=&quot;yui_3_17_2_1_1747786801641_1207&quot;&gt;&amp;nbsp;Verificar frequência&lt;/h3&gt;&lt;div style=&quot;&quot;&gt;&lt;h3 style=&quot;box-sizing: border-box; margin-top: 0px; margin-bottom: 0.5rem; font-weight: 500; line-height: 1.2; font-family: &amp;quot;Roboto Condensed&amp;quot;; color: rgb(33, 37, 41); background-color: rgb(248, 249, 250);&quot; id=&quot;yui_3_17_2_1_1747786801641_1207&quot;&gt;&amp;nbsp;Gerar Código&lt;/h3&gt;&lt;/div&gt;&lt;div style=&quot;&quot;&gt;&lt;h3 style=&quot;box-sizing: border-box; margin-top: 0px; margin-bottom: 0.5rem; font-weight: 500; line-height: 1.2; font-family: &amp;quot;Roboto Condensed&amp;quot;; color: rgb(33, 37, 41); background-color: rgb(248, 249, 250);&quot; id=&quot;yui_3_17_2_1_1747786801641_1207&quot;&gt;Lançar presença&lt;/h3&gt;&lt;/div&gt;&lt;/font&gt;&lt;/span&gt;&lt;/div&gt;" style="text;strokeColor=none;fillColor=none;align=left;verticalAlign=top;spacingLeft=4;spacingRight=4;overflow=hidden;rotatable=0;points=[[0,0.5],[1,0.5]];portConstraint=eastwest;whiteSpace=wrap;html=1;" vertex="1" parent="wlbdYxcqf9z36K8V1xM--27">
          <mxGeometry y="158" width="160" height="162" as="geometry" />
        </mxCell>
        <mxCell id="wlbdYxcqf9z36K8V1xM--31" value="&lt;h3 style=&quot;box-sizing: border-box; margin-top: 0px; margin-bottom: 0.5rem; font-weight: 500; line-height: 1.2; font-size: 1.75rem; font-family: &amp;quot;Roboto Condensed&amp;quot;; color: rgb(33, 37, 41); text-align: left; background-color: rgb(248, 249, 250);&quot; id=&quot;yui_3_17_2_1_1747786801641_1189&quot;&gt;Gerente&lt;/h3&gt;" style="swimlane;fontStyle=1;align=center;verticalAlign=top;childLayout=stackLayout;horizontal=1;startSize=50;horizontalStack=0;resizeParent=1;resizeParentMax=0;resizeLast=0;collapsible=1;marginBottom=0;whiteSpace=wrap;html=1;" vertex="1" parent="1">
          <mxGeometry x="240" y="760" width="160" height="320" as="geometry" />
        </mxCell>
        <mxCell id="wlbdYxcqf9z36K8V1xM--32" value="nome: str&lt;div&gt;idade: num&lt;/div&gt;&lt;div&gt;email: email or str&lt;/div&gt;&lt;div&gt;time: str&lt;/div&gt;&lt;div&gt;subordinado_estoquista: str&lt;/div&gt;&lt;div&gt;subordinado_operário: str&lt;/div&gt;" style="text;strokeColor=none;fillColor=none;align=left;verticalAlign=top;spacingLeft=4;spacingRight=4;overflow=hidden;rotatable=0;points=[[0,0.5],[1,0.5]];portConstraint=eastwest;whiteSpace=wrap;html=1;" vertex="1" parent="wlbdYxcqf9z36K8V1xM--31">
          <mxGeometry y="50" width="160" height="100" as="geometry" />
        </mxCell>
        <mxCell id="wlbdYxcqf9z36K8V1xM--33" value="" style="line;strokeWidth=1;fillColor=none;align=left;verticalAlign=middle;spacingTop=-1;spacingLeft=3;spacingRight=3;rotatable=0;labelPosition=right;points=[];portConstraint=eastwest;strokeColor=inherit;" vertex="1" parent="wlbdYxcqf9z36K8V1xM--31">
          <mxGeometry y="150" width="160" height="8" as="geometry" />
        </mxCell>
        <mxCell id="wlbdYxcqf9z36K8V1xM--34" value="&lt;h3 style=&quot;box-sizing: border-box; margin-top: 0px; margin-bottom: 0.5rem; font-weight: 500; line-height: 1.2; font-family: &amp;quot;Roboto Condensed&amp;quot;; color: rgb(33, 37, 41); background-color: rgb(248, 249, 250);&quot; id=&quot;yui_3_17_2_1_1747786801641_1201&quot;&gt;&lt;font style=&quot;font-size: 14px;&quot;&gt;&amp;nbsp;&lt;/font&gt;&lt;span style=&quot;background-color: rgb(248, 249, 250); color: rgb(33, 37, 41);&quot;&gt;&lt;font style=&quot;font-size: 12px;&quot;&gt;I&lt;/font&gt;&lt;font style=&quot;font-size: 12px;&quot;&gt;nserir Código&lt;/font&gt;&lt;/span&gt;&lt;/h3&gt;&lt;div&gt;&lt;span style=&quot;background-color: rgb(248, 249, 250); color: rgb(33, 37, 41);&quot;&gt;&lt;font size=&quot;3&quot; style=&quot;&quot;&gt;&lt;h3 style=&quot;box-sizing: border-box; margin-top: 0px; margin-bottom: 0.5rem; font-weight: 500; line-height: 1.2; font-family: &amp;quot;Roboto Condensed&amp;quot;; color: rgb(33, 37, 41); background-color: rgb(248, 249, 250);&quot; id=&quot;yui_3_17_2_1_1747786801641_1207&quot;&gt;&amp;nbsp;Verificar frequência&lt;/h3&gt;&lt;div style=&quot;&quot;&gt;&lt;h3 style=&quot;box-sizing: border-box; margin-top: 0px; margin-bottom: 0.5rem; font-weight: 500; line-height: 1.2; font-family: &amp;quot;Roboto Condensed&amp;quot;; color: rgb(33, 37, 41); background-color: rgb(248, 249, 250);&quot; id=&quot;yui_3_17_2_1_1747786801641_1207&quot;&gt;&amp;nbsp;Gerar Código&lt;/h3&gt;&lt;/div&gt;&lt;div style=&quot;&quot;&gt;&lt;h3 style=&quot;box-sizing: border-box; margin-top: 0px; margin-bottom: 0.5rem; font-weight: 500; line-height: 1.2; font-family: &amp;quot;Roboto Condensed&amp;quot;; color: rgb(33, 37, 41); background-color: rgb(248, 249, 250);&quot; id=&quot;yui_3_17_2_1_1747786801641_1207&quot;&gt;Lançar presença&lt;/h3&gt;&lt;/div&gt;&lt;/font&gt;&lt;/span&gt;&lt;/div&gt;" style="text;strokeColor=none;fillColor=none;align=left;verticalAlign=top;spacingLeft=4;spacingRight=4;overflow=hidden;rotatable=0;points=[[0,0.5],[1,0.5]];portConstraint=eastwest;whiteSpace=wrap;html=1;" vertex="1" parent="wlbdYxcqf9z36K8V1xM--31">
          <mxGeometry y="158" width="160" height="162" as="geometry" />
        </mxCell>
        <mxCell id="wlbdYxcqf9z36K8V1xM--35" value="" style="endArrow=none;html=1;rounded=0;entryX=0;entryY=0.5;entryDx=0;entryDy=0;exitX=1;exitY=0.5;exitDx=0;exitDy=0;" edge="1" parent="1" source="wlbdYxcqf9z36K8V1xM--15" target="wlbdYxcqf9z36K8V1xM--19">
          <mxGeometry width="50" height="50" relative="1" as="geometry">
            <mxPoint x="340" y="540" as="sourcePoint" />
            <mxPoint x="390" y="490" as="targetPoint" />
          </mxGeometry>
        </mxCell>
        <mxCell id="wlbdYxcqf9z36K8V1xM--36" value="" style="endArrow=none;html=1;rounded=0;exitX=1;exitY=0.5;exitDx=0;exitDy=0;entryX=0;entryY=0.5;entryDx=0;entryDy=0;" edge="1" parent="1" source="wlbdYxcqf9z36K8V1xM--24" target="wlbdYxcqf9z36K8V1xM--32">
          <mxGeometry width="50" height="50" relative="1" as="geometry">
            <mxPoint x="340" y="950" as="sourcePoint" />
            <mxPoint x="390" y="900" as="targetPoint" />
          </mxGeometry>
        </mxCell>
        <mxCell id="wlbdYxcqf9z36K8V1xM--37" value="" style="endArrow=none;html=1;rounded=0;entryX=0;entryY=0.5;entryDx=0;entryDy=0;exitX=1;exitY=0.5;exitDx=0;exitDy=0;" edge="1" parent="1" source="wlbdYxcqf9z36K8V1xM--32" target="wlbdYxcqf9z36K8V1xM--28">
          <mxGeometry width="50" height="50" relative="1" as="geometry">
            <mxPoint x="340" y="950" as="sourcePoint" />
            <mxPoint x="390" y="900" as="targetPoint" />
          </mxGeometry>
        </mxCell>
      </root>
    </mxGraphModel>
  </diagram>
</mxfile>
